<svg width="52" height="36" viewBox="0 0 52 36" fill="none" xmlns="http://www.w3.org/2000/svg">
<g clip-path="url(#clip0_224_2997)">
<path d="M20.0714 36.2346C20.0156 36.2346 19.9598 36.2346 19.904 36.2346C17.4765 36.2346 15.077 36.2346 12.6495 36.2346C12.0636 36.2346 11.6451 35.816 11.6451 35.2301C11.6451 32.4957 11.6451 29.7614 11.6451 27.027C11.6451 26.4132 12.0636 25.9947 12.6774 25.9947C13.4587 25.9947 14.2399 25.9947 15.0212 25.9947C15.635 25.9947 16.0256 25.604 16.0256 24.9902C16.0256 18.7682 16.0256 12.574 16.0256 6.35193C16.0256 5.7102 16.2767 5.23587 16.7232 4.81735C17.3091 4.28722 18.0066 3.9803 18.7321 3.72918C19.8203 3.36646 20.9363 3.22695 22.0803 3.19905C23.2801 3.17115 24.4519 3.28276 25.5959 3.61758C26.405 3.84079 27.1863 4.14771 27.8559 4.70574C28.2186 5.01266 28.5256 5.37538 28.6372 5.8497C28.7209 6.26823 28.7209 6.65885 28.414 6.99367C28.2186 7.21688 27.9675 7.30059 27.6885 7.32849C27.3537 7.32849 26.991 7.32849 26.6561 7.32849C26.0423 7.30059 25.6238 7.80282 25.6517 8.33295C25.6796 8.97469 25.6517 9.64432 25.6517 10.2861C25.6517 10.8441 26.0423 11.2347 26.6003 11.2347C26.9631 11.2347 27.2979 11.2347 27.6606 11.2347C28.2465 11.2347 28.6651 11.6532 28.6651 12.2392C28.6651 16.5081 28.6651 20.7492 28.6651 25.0181C28.6651 25.6319 29.0557 26.0226 29.6695 26.0226C30.4508 26.0226 31.232 26.0226 31.9854 26.0226C32.6271 26.0226 33.0456 26.4411 33.0456 27.0549C33.0456 29.7614 33.0456 32.4678 33.0456 35.1743C33.0456 35.816 32.6271 36.2346 31.9854 36.2346C29.1673 36.2346 26.3492 36.2346 23.5312 36.2346C23.3917 36.2346 23.3638 36.2067 23.3638 36.0672C23.3359 34.6163 23.3638 33.1375 23.4475 31.6866C23.5312 30.2357 23.6986 28.7848 23.9218 27.3339C24.0892 26.2737 24.3124 25.2134 24.5914 24.1532C24.5914 24.1253 24.5914 24.0974 24.6193 24.0695L24.5914 24.0416C24.3682 24.1811 24.1171 24.2927 23.8939 24.4322C23.1405 24.9065 22.6104 25.5761 22.1361 26.3016C21.3827 27.5014 20.8805 28.8406 20.5736 30.2357C20.1551 31.9935 20.0156 33.8071 20.0714 35.6207C20.0714 35.816 20.0993 35.9834 20.0993 36.1788C20.0714 36.1788 20.0714 36.2067 20.0714 36.2346Z" fill="white"/>
<path d="M46.4104 1.77606C46.3825 2.4457 46.1035 2.92003 45.5734 3.22695C44.5131 3.81288 43.425 4.39881 42.3368 4.98475C41.9183 5.20796 41.4998 5.43117 41.0812 5.68229C40.4953 6.01711 40.1605 6.68675 40.3 7.32848C40.4395 8.02603 40.9975 8.50035 41.6672 8.58406C42.6158 8.69566 43.5645 8.83517 44.4852 8.94678C45.2107 9.03048 45.9082 9.11419 46.6337 9.22579C47.3312 9.3374 47.8613 9.86753 47.9729 10.5651C48.0008 10.8162 48.0845 11.0952 48.0566 11.3463C48.0008 12.0718 47.3591 12.574 46.6337 12.4624C45.5176 12.3229 44.4015 12.1834 43.2855 12.0439C42.1415 11.9043 40.9696 11.7369 39.8257 11.5974C38.6538 11.4579 37.5098 11.2905 36.338 11.151C34.9708 10.9836 33.6036 10.7883 32.2364 10.6209C31.8737 10.5651 31.5389 10.5372 31.1762 10.4814C30.5065 10.3698 29.9764 9.83963 29.8648 9.19789C29.7532 8.50035 30.0601 7.83071 30.6739 7.49589C31.3157 7.13317 31.9574 6.79835 32.5991 6.43563C35.3335 4.92895 38.0958 3.42226 40.8301 1.94347C41.8904 1.35754 42.9227 0.799507 43.983 0.213573C44.9875 -0.344459 46.1872 0.241474 46.3825 1.38544C46.3825 1.49705 46.4104 1.66446 46.4104 1.77606Z" fill="white"/>
<path d="M34.05 36.2345C34.078 36.1229 34.1059 36.0113 34.1617 35.8997C34.7197 34.1698 35.3614 32.4678 36.1985 30.8216C36.8681 29.5382 37.5936 28.3105 38.5701 27.2223C39.0723 26.6922 39.6025 26.19 40.2721 25.8551C40.5232 25.7435 40.8022 25.6598 41.0534 25.5482C41.0813 25.5482 41.1371 25.5482 41.1929 25.5203C41.165 25.5761 41.165 25.6319 41.1371 25.6598C40.1047 28.1152 39.2677 30.6542 38.5143 33.1933C38.2353 34.1698 37.9842 35.1464 37.7052 36.095C37.6773 36.1787 37.6494 36.2066 37.5378 36.2066C36.4217 36.2066 35.3056 36.2066 34.1896 36.2066C34.1617 36.2345 34.1059 36.2345 34.05 36.2345Z" fill="white"/>
<path d="M11.1428 36.2346C11.087 36.2346 11.0312 36.2346 10.9754 36.2346C9.85934 36.2346 8.74327 36.2346 7.62721 36.2346C7.5156 36.2346 7.4598 36.2067 7.4319 36.0951C6.84597 33.8908 6.12052 31.7424 5.14397 29.6777C4.80915 28.9802 4.44643 28.3105 4.08371 27.613C4.0558 27.5572 4.0279 27.5293 4 27.4456C4.22321 27.4456 4.44643 27.4177 4.64174 27.4456C5.47879 27.5293 6.17633 27.892 6.84597 28.3942C7.76672 29.1197 8.49216 30.0125 9.07809 31.017C9.99885 32.5516 10.6127 34.2257 11.0312 35.9556C11.087 36.0393 11.1149 36.123 11.1428 36.2346Z" fill="white"/>
</g>
<defs>
<clipPath id="clip0_224_2997">
<rect width="52" height="36" fill="white"/>
</clipPath>
</defs>
</svg>
