<svg width="177" height="16" viewBox="0 0 177 16" fill="none" xmlns="http://www.w3.org/2000/svg">
<path d="M15.5108 15.7829H12.6985V11.962H2.81227V15.7829H0V8C0 6.86386 0.194696 5.81818 0.584087 4.86296C0.973478 3.90773 1.5143 3.08639 2.20655 2.39891C2.8988 1.71144 3.71725 1.17594 4.66188 0.792402C5.60651 0.408865 6.63768 0.217096 7.75538 0.217096H14.0938C14.2885 0.217096 14.4724 0.253279 14.6454 0.325644C14.8185 0.39801 14.9699 0.499322 15.0997 0.629579C15.2295 0.759837 15.3305 0.911805 15.4026 1.08548C15.4747 1.25916 15.5108 1.44369 15.5108 1.63908V15.7829ZM2.81227 9.13976H12.6985V3.03935H7.75538C7.66885 3.03935 7.48497 3.05382 7.20374 3.08277C6.92972 3.10448 6.60884 3.16599 6.24108 3.2673C5.88053 3.36861 5.49835 3.5242 5.09454 3.73406C4.69072 3.94392 4.31936 4.23338 3.98044 4.60244C3.64153 4.97151 3.3603 5.43464 3.13676 5.99186C2.92044 6.54184 2.81227 7.21122 2.81227 8V9.13976Z" fill="white"/>
<path d="M32.0599 1.06377C32.1681 1.31705 32.2005 1.5848 32.1572 1.86703C32.114 2.14202 31.9986 2.3772 31.8111 2.57259L22.5306 12.9607H32.0383V15.7829H19.3614C19.0874 15.7829 18.8314 15.7069 18.5934 15.555C18.3627 15.3957 18.1896 15.1895 18.0742 14.9362C17.9517 14.6829 17.912 14.4188 17.9553 14.1438C18.0057 13.8688 18.1211 13.63 18.3014 13.4274L27.6035 3.03935H18.0742V0.217096H30.7727C31.0467 0.217096 31.2991 0.296698 31.5299 0.455902C31.7678 0.60787 31.9445 0.810493 32.0599 1.06377Z" fill="white"/>
<path d="M37.4356 15.7829H34.6234V0.217096H37.4356V15.7829Z" fill="white"/>
<path d="M56.2238 5.44912C56.2238 6.09317 56.1445 6.66848 55.9858 7.17503C55.8272 7.68159 55.6109 8.13026 55.3368 8.52103C55.07 8.90457 54.76 9.23383 54.4066 9.50882C54.0533 9.78381 53.6819 10.0118 53.2925 10.1927C52.9104 10.3664 52.521 10.493 52.1244 10.5726C51.735 10.6522 51.3672 10.692 51.0211 10.692L56.8944 15.7829H52.5462L46.6837 10.692H44.661V7.86974H51.0211C51.3744 7.8408 51.6953 7.76843 51.9837 7.65265C52.2794 7.52962 52.5318 7.3668 52.7409 7.16418C52.9572 6.96156 53.1231 6.71913 53.2384 6.43691C53.3538 6.14744 53.4115 5.81818 53.4115 5.44912V3.66893C53.4115 3.50972 53.3899 3.39032 53.3466 3.31072C53.3106 3.22388 53.2601 3.16237 53.1952 3.12619C53.1375 3.08277 53.0726 3.05744 53.0005 3.0502C52.9356 3.04297 52.8743 3.03935 52.8166 3.03935H43.5361V15.7829H40.7238V1.63908C40.7238 1.44369 40.7599 1.25916 40.832 1.08548C40.9041 0.911805 41.0015 0.759837 41.1241 0.629579C41.2538 0.499322 41.4053 0.39801 41.5783 0.325644C41.7514 0.253279 41.9389 0.217096 42.1408 0.217096H52.8166C53.444 0.217096 53.974 0.332881 54.4066 0.56445C54.8393 0.788783 55.189 1.07463 55.4558 1.42198C55.7298 1.7621 55.9245 2.13116 56.0399 2.52917C56.1625 2.92718 56.2238 3.29986 56.2238 3.64722V5.44912Z" fill="white"/>
<path d="M74.5468 5.44912C74.5468 6.09317 74.4675 6.66848 74.3088 7.17503C74.1502 7.68159 73.9339 8.13026 73.6599 8.52103C73.3931 8.90457 73.083 9.23383 72.7297 9.50882C72.3763 9.78381 72.005 10.0118 71.6156 10.1927C71.2334 10.3664 70.844 10.493 70.4474 10.5726C70.058 10.6522 69.6902 10.692 69.3441 10.692L75.2174 15.7829H70.8692L65.0067 10.692H62.9841V7.86974H69.3441C69.6974 7.8408 70.0183 7.76843 70.3068 7.65265C70.6024 7.52962 70.8548 7.3668 71.0639 7.16418C71.2803 6.96156 71.4461 6.71913 71.5615 6.43691C71.6768 6.14744 71.7345 5.81818 71.7345 5.44912V3.66893C71.7345 3.50972 71.7129 3.39032 71.6696 3.31072C71.6336 3.22388 71.5831 3.16237 71.5182 3.12619C71.4605 3.08277 71.3956 3.05744 71.3235 3.0502C71.2586 3.04297 71.1973 3.03935 71.1396 3.03935H61.8591V15.7829H59.0469V1.63908C59.0469 1.44369 59.0829 1.25916 59.155 1.08548C59.2271 0.911805 59.3245 0.759837 59.4471 0.629579C59.5769 0.499322 59.7283 0.39801 59.9014 0.325644C60.0744 0.253279 60.2619 0.217096 60.4638 0.217096H71.1396C71.767 0.217096 72.297 0.332881 72.7297 0.56445C73.1623 0.788783 73.512 1.07463 73.7788 1.42198C74.0529 1.7621 74.2476 2.13116 74.3629 2.52917C74.4855 2.92718 74.5468 3.29986 74.5468 3.64722V5.44912Z" fill="white"/>
<path d="M80.2038 15.7829H77.3915V0.217096H80.2038V15.7829Z" fill="white"/>
<path d="M98.7972 14.3609C98.7972 14.5635 98.7612 14.7517 98.6891 14.9254C98.617 15.0991 98.516 15.251 98.3862 15.3813C98.2636 15.5043 98.1158 15.602 97.9427 15.6744C97.7697 15.7467 97.5822 15.7829 97.3803 15.7829H87.2345C86.9749 15.7829 86.6937 15.754 86.3908 15.6961C86.0951 15.6309 85.7995 15.5332 85.5039 15.403C85.2154 15.2727 84.9378 15.1063 84.671 14.9037C84.4042 14.6938 84.1662 14.4441 83.9571 14.1547C83.7552 13.858 83.5929 13.5179 83.4704 13.1343C83.3478 12.7436 83.2865 12.3057 83.2865 11.8209V4.1791C83.2865 3.91859 83.3153 3.63998 83.373 3.34328C83.4379 3.03935 83.5353 2.74265 83.6651 2.45319C83.7949 2.15649 83.9643 1.87427 84.1734 1.60651C84.3825 1.33876 84.6313 1.10357 84.9198 0.90095C85.2154 0.69109 85.5543 0.52465 85.9365 0.401628C86.3187 0.278607 86.7513 0.217096 87.2345 0.217096H98.6674V3.03935H87.2345C86.8667 3.03935 86.5855 3.13704 86.3908 3.33243C86.1961 3.52782 86.0988 3.81728 86.0988 4.20081V11.8209C86.0988 12.1827 86.1961 12.4649 86.3908 12.6676C86.5927 12.863 86.8739 12.9607 87.2345 12.9607H95.985V9.42198H88.5V6.57802H97.3803C97.5822 6.57802 97.7697 6.61782 97.9427 6.69742C98.1158 6.76979 98.2636 6.8711 98.3862 7.00136C98.516 7.13161 98.617 7.28358 98.6891 7.45726C98.7612 7.6237 98.7972 7.80461 98.7972 8V14.3609Z" fill="white"/>
<path d="M116.947 15.7829H114.135V11.962H104.249V15.7829H101.436V8C101.436 6.86386 101.631 5.81818 102.021 4.86296C102.41 3.90773 102.951 3.08639 103.643 2.39891C104.335 1.71144 105.154 1.17594 106.098 0.792402C107.043 0.408865 108.074 0.217096 109.192 0.217096H115.53C115.725 0.217096 115.909 0.253279 116.082 0.325644C116.255 0.39801 116.406 0.499322 116.536 0.629579C116.666 0.759837 116.767 0.911805 116.839 1.08548C116.911 1.25916 116.947 1.44369 116.947 1.63908V15.7829ZM104.249 9.13976H114.135V3.03935H109.192C109.105 3.03935 108.921 3.05382 108.64 3.08277C108.366 3.10448 108.045 3.16599 107.678 3.2673C107.317 3.36861 106.935 3.5242 106.531 3.73406C106.127 3.94392 105.756 4.23338 105.417 4.60244C105.078 4.97151 104.797 5.43464 104.573 5.99186C104.357 6.54184 104.249 7.21122 104.249 8V9.13976Z" fill="white"/>
<path d="M134.243 3.03935H128.045V15.7829H125.233V3.03935H119.024V0.217096H134.243V3.03935Z" fill="white"/>
<path d="M139.153 15.7829H136.341V0.217096H139.153V15.7829Z" fill="white"/>
<path d="M158.72 9.48711C158.72 10.4351 158.558 11.3071 158.234 12.1031C157.909 12.8991 157.458 13.5866 156.881 14.1655C156.305 14.7445 155.62 15.1967 154.826 15.5224C154.04 15.8408 153.182 16 152.252 16H148.445C147.514 16 146.653 15.8408 145.86 15.5224C145.066 15.1967 144.381 14.7445 143.804 14.1655C143.228 13.5866 142.773 12.8991 142.442 12.1031C142.117 11.3071 141.955 10.4351 141.955 9.48711V6.51289C141.955 5.57214 142.117 4.70375 142.442 3.90773C142.773 3.10448 143.228 2.41701 143.804 1.84532C144.381 1.2664 145.066 0.814111 145.86 0.488467C146.653 0.162822 147.514 0 148.445 0H152.252C153.182 0 154.04 0.162822 154.826 0.488467C155.62 0.814111 156.305 1.2664 156.881 1.84532C157.458 2.41701 157.909 3.10448 158.234 3.90773C158.558 4.70375 158.72 5.57214 158.72 6.51289V9.48711ZM155.908 6.51289C155.908 5.95568 155.818 5.45274 155.638 5.00407C155.464 4.54817 155.216 4.16101 154.891 3.84261C154.574 3.51696 154.188 3.2673 153.734 3.09362C153.287 2.91271 152.793 2.82225 152.252 2.82225H148.445C147.897 2.82225 147.395 2.91271 146.941 3.09362C146.494 3.2673 146.108 3.51696 145.784 3.84261C145.459 4.16101 145.207 4.54817 145.027 5.00407C144.854 5.45274 144.767 5.95568 144.767 6.51289V9.48711C144.767 10.0443 144.854 10.5509 145.027 11.0068C145.207 11.4555 145.459 11.8426 145.784 12.1682C146.108 12.4867 146.494 12.7363 146.941 12.9172C147.395 13.0909 147.897 13.1777 148.445 13.1777H152.23C152.778 13.1777 153.276 13.0909 153.723 12.9172C154.177 12.7363 154.567 12.4867 154.891 12.1682C155.216 11.8426 155.464 11.4555 155.638 11.0068C155.818 10.5509 155.908 10.0443 155.908 9.48711V6.51289Z" fill="white"/>
<path d="M177 14.578C177 14.7806 176.96 14.9688 176.881 15.1425C176.809 15.3161 176.708 15.4681 176.578 15.5984C176.456 15.7214 176.308 15.8191 176.135 15.8915C175.962 15.9638 175.778 16 175.583 16C175.41 16 175.233 15.9674 175.053 15.9023C174.88 15.8372 174.725 15.7322 174.588 15.5875L164.312 4.81954V15.7829H161.5V1.42198C161.5 1.13252 161.579 0.872004 161.738 0.640434C161.904 0.401628 162.113 0.224333 162.365 0.108548C162.632 0 162.906 -0.0253279 163.187 0.0325645C163.469 0.0832203 163.71 0.213478 163.912 0.423338L174.188 11.1805V0.217096H177V14.578Z" fill="white"/>
</svg>
