<svg width="29" height="28" viewBox="0 0 29 28" fill="none" xmlns="http://www.w3.org/2000/svg">
<path d="M26.593 26H2.40698C1.91116 26 1.5 25.5467 1.5 25C1.5 24.4533 1.91116 24 2.40698 24H26.593C27.0888 24 27.5 24.4533 27.5 25C27.5 25.5467 27.0888 26 26.593 26Z" fill="white"/>
<path d="M11.5 4.2V24H17.5V4.2C17.5 2.99 16.9 2 15.1 2H13.9C12.1 2 11.5 2.99 11.5 4.2Z" fill="white"/>
<path d="M3.5 11.1429V24H8.5V11.1429C8.5 9.96429 8 9 6.5 9H5.5C4 9 3.5 9.96429 3.5 11.1429Z" fill="white"/>
<path d="M20.5 17V24H24.5V17C24.5 15.9 24.1 15 22.9 15H22.1C20.9 15 20.5 15.9 20.5 17Z" fill="white"/>
</svg>
