<svg width="52" height="36" viewBox="0 0 52 36" fill="none" xmlns="http://www.w3.org/2000/svg">
<g clip-path="url(#clip0_224_2964)">
<path d="M28.4136 24.243C21.3286 24.243 14.2545 24.243 7.16586 24.243C7.16586 16.4442 7.16586 8.64901 7.16586 0.843033C14.24 0.843033 21.3214 0.843033 28.4136 0.843033C28.4136 8.63467 28.4136 16.4263 28.4136 24.243ZM17.7717 7.82072C20.5631 7.82072 23.3545 7.82072 26.1495 7.82072C26.2759 7.82072 26.4023 7.82431 26.5286 7.82072C26.8717 7.80279 27.1497 7.49801 27.1461 7.14662C27.1425 6.79164 26.8645 6.49403 26.5178 6.49044C25.7992 6.47969 25.077 6.46893 24.3584 6.46893C23.7048 6.46893 23.0511 6.48686 22.3975 6.48686C19.1078 6.49044 15.8181 6.48686 12.5284 6.48686C11.3981 6.48686 10.2642 6.48686 9.13392 6.48686C9.05086 6.48686 8.9642 6.49403 8.88475 6.51913C8.57781 6.61953 8.39725 6.93148 8.45142 7.25777C8.50559 7.58765 8.76559 7.82072 9.0942 7.82072C10.0692 7.82431 11.0442 7.82072 12.0156 7.82072C13.9331 7.82072 15.8506 7.82072 17.7717 7.82072ZM24.5389 18.61C24.5389 18.6064 24.5389 18.5992 24.5389 18.5956C25.1709 18.5956 25.8028 18.6028 26.4348 18.5885C26.5828 18.5849 26.7489 18.5383 26.8717 18.4594C27.11 18.3052 27.2003 17.9896 27.1173 17.7279C27.0306 17.4554 26.7995 17.2797 26.4925 17.2761C25.4453 17.2725 24.4017 17.2725 23.3545 17.2725C20.8809 17.2725 18.4073 17.2725 15.9373 17.2725C15.1211 17.2725 14.305 17.2546 13.4889 17.2582C12.1059 17.2582 10.7264 17.2689 9.34336 17.2761C9.26031 17.2761 9.17364 17.2761 9.09059 17.2761C8.80892 17.2797 8.60309 17.4088 8.49475 17.6634C8.38281 17.9215 8.42975 18.1653 8.61753 18.3805C8.7692 18.5562 8.9642 18.5956 9.18447 18.5956C12.6873 18.5956 16.1864 18.5956 19.6892 18.5956C20.5378 18.5956 21.3864 18.6064 22.235 18.61C23.0006 18.6136 23.7698 18.61 24.5389 18.61ZM17.7717 10.0797C17.7717 10.0761 17.7717 10.0761 17.7717 10.0797C17.6273 10.0761 17.4828 10.0761 17.3384 10.0761C14.695 10.0761 12.0553 10.0761 9.41197 10.0761C9.23142 10.0761 9.04364 10.0653 8.87753 10.1155C8.55253 10.2124 8.39003 10.5386 8.45142 10.89C8.50559 11.1984 8.77281 11.41 9.10864 11.41C10.6542 11.41 12.2034 11.41 13.7489 11.41C17.9631 11.41 22.1736 11.41 26.3878 11.41C26.4817 11.41 26.5828 11.41 26.6731 11.3813C26.9945 11.2881 27.1823 10.9761 27.1317 10.6426C27.0811 10.3056 26.8211 10.0797 26.4745 10.0797C23.5711 10.0761 20.6714 10.0797 17.7717 10.0797ZM17.7898 20.8689C16.6992 20.8689 15.6123 20.8689 14.5217 20.8689C12.7161 20.8689 10.9106 20.8689 9.10503 20.8689C8.71864 20.8689 8.43336 21.1522 8.43336 21.5179C8.43336 21.9016 8.71142 22.1813 9.10142 22.192C9.1917 22.1956 9.28197 22.192 9.37225 22.192C12.615 22.192 15.8614 22.192 19.1042 22.192C21.5489 22.192 23.99 22.192 26.4348 22.192C26.897 22.192 27.2003 21.8514 27.1317 21.4139C27.0775 21.0697 26.8103 20.8689 26.4023 20.8689C23.5314 20.8689 20.6606 20.8689 17.7898 20.8689ZM17.7464 15.0028C19.3786 15.0028 21.0073 15.0028 22.6395 15.0028C23.8961 15.0028 25.1528 15.0136 26.4095 15.0136C26.6261 15.0136 26.8284 14.9598 26.9728 14.7841C27.1606 14.5618 27.1967 14.3072 27.0739 14.049C26.9403 13.7657 26.6839 13.6797 26.3878 13.6797C24.8711 13.6833 23.3545 13.6833 21.8378 13.6833C17.6273 13.6833 13.4131 13.6833 9.20253 13.6833C9.13031 13.6833 9.05809 13.6869 8.98586 13.694C8.64281 13.7406 8.39725 14.0526 8.43697 14.3968C8.4767 14.7733 8.74392 15.0028 9.15197 15.0028C12.0192 15.0028 14.8828 15.0028 17.7464 15.0028ZM17.7861 2.89044C15.7206 2.89044 13.6586 2.89044 11.5931 2.89044C10.7625 2.89044 9.93197 2.88686 9.10142 2.89044C8.8017 2.89044 8.58142 3.0518 8.4767 3.32072C8.3792 3.58248 8.45142 3.86933 8.66086 4.05578C8.82697 4.20279 9.0292 4.20996 9.23864 4.20996C11.427 4.20996 13.6153 4.20996 15.8036 4.20996C19.2631 4.20996 22.7225 4.20996 26.1856 4.20996C26.2939 4.20996 26.4023 4.20997 26.5106 4.20638C26.8681 4.18845 27.1353 3.92311 27.1498 3.57889C27.1642 3.24542 26.9006 2.94064 26.5611 2.89762C26.4709 2.88686 26.3806 2.89403 26.2903 2.89403C23.452 2.89044 20.6209 2.89044 17.7861 2.89044Z" fill="white"/>
<path d="M33.0214 35.9968C22.8525 35.9968 12.7053 35.9968 2.53281 35.9968C2.53281 35.9287 2.53281 35.8642 2.53281 35.8032C2.53281 34.8422 2.53281 33.8777 2.53281 32.9167C2.53281 32.2498 2.97336 31.7944 3.64503 31.7944C5.47586 31.7908 7.30308 31.798 9.13392 31.798C10.9106 31.798 12.6836 31.7944 14.4603 31.7944C17.2264 31.7944 19.9961 31.7944 22.7623 31.7944C25.3442 31.7944 27.9261 31.7944 30.5081 31.7944C30.9703 31.7944 31.4361 31.8052 31.8984 31.7944C32.6134 31.7765 33.0503 32.3395 33.0322 32.949C33.0034 33.8992 33.025 34.8494 33.025 35.7996C33.0214 35.857 33.0214 35.9144 33.0214 35.9968Z" fill="white"/>
<path d="M31.1906 0.83228C31.9634 0.825108 32.7217 0.778495 33.4439 1.08686C34.7331 1.63547 35.5781 2.89762 35.5709 4.28885C35.5673 4.93427 35.5709 5.5761 35.5709 6.22152C35.5709 9.30519 35.5709 12.3889 35.5709 15.4725C35.5709 17.2402 35.5709 19.008 35.5709 20.7757C35.5709 22.3355 34.585 23.6657 33.0792 24.1104C32.8156 24.1892 32.5375 24.2215 32.2631 24.2394C31.9092 24.261 31.5553 24.243 31.187 24.243C31.1906 16.4406 31.1906 8.64543 31.1906 0.83228Z" fill="white"/>
<path d="M4.36725 0.82869C4.36725 8.63825 4.36725 16.4299 4.36725 24.2179C4.35642 24.2287 4.3492 24.243 4.33837 24.243C3.59448 24.2538 2.85059 24.2968 2.13559 23.9992C0.864476 23.4685 0.00503164 22.21 0.00503164 20.8402C0.00503164 16.8924 0.0086427 12.941 0.0086427 8.99323C0.0086427 7.41554 -0.013024 5.83785 0.0122538 4.26016C0.0339204 2.82232 0.734476 1.77889 2.02725 1.14064C2.46781 0.921917 2.94809 0.832276 3.44281 0.835861C3.74253 0.82869 4.04587 0.82869 4.36725 0.82869Z" fill="white"/>
<path d="M36.2498 7.17531C37.0767 7.21116 37.8928 7.17172 38.68 7.30081C39.9837 7.51595 41.0128 8.69921 41.1392 10.0116C41.1717 10.3379 41.1681 10.6677 41.1681 10.994C41.1717 12.2669 41.1681 13.5399 41.1681 14.8128C41.1681 16.3582 40.1245 17.6383 38.6006 17.9502C38.355 18.0004 38.0987 18.004 37.8459 18.0076C37.3187 18.0147 36.7878 18.0112 36.2462 18.0112C36.2498 14.4076 36.2498 10.8183 36.2498 7.17531Z" fill="white"/>
<path d="M51.9942 15.2108C48.607 15.2108 45.2306 15.2108 41.8398 15.2108C41.8398 13.608 41.8398 12.016 41.8398 10.4132C45.2234 10.4132 48.6034 10.4132 51.9942 10.4132C51.9942 12.0088 51.9942 13.6044 51.9942 15.2108Z" fill="white"/>
<path d="M29.0997 12.5359C29.0997 8.88567 29.0997 5.23547 29.0997 1.58527C29.0997 1.30559 29.0961 1.02232 29.0997 0.742644C29.107 0.312365 29.4103 0.000412223 29.8147 0.00399788C30.2192 0.00758354 30.5153 0.323121 30.5153 0.756986C30.5153 7.57332 30.5153 14.3932 30.5153 21.2096C30.5153 22.2602 30.5153 23.3144 30.5117 24.365C30.5117 24.659 30.3745 24.8813 30.1036 25.0068C29.8364 25.1287 29.5872 25.0928 29.3597 24.9136C29.1684 24.763 29.0961 24.5586 29.0961 24.3148C29.0997 22.6546 29.0961 20.9944 29.0961 19.3307C29.0997 17.0646 29.0997 14.802 29.0997 12.5359Z" fill="white"/>
<path d="M5.06058 12.543C5.06058 8.61674 5.06058 4.69403 5.06058 0.76774C5.06058 0.441445 5.19058 0.201206 5.48669 0.0613657C5.73947 -0.056961 6.03197 0.000408876 6.2378 0.194034C6.4003 0.348218 6.4653 0.541844 6.4653 0.760569C6.4653 1.38806 6.4653 2.01555 6.4653 2.64304C6.4653 6.08886 6.46169 9.53826 6.46169 12.9841C6.46169 16.5733 6.46169 20.1661 6.46169 23.7554C6.46169 23.9526 6.46891 24.1498 6.4653 24.347C6.45086 24.7737 6.15113 25.0785 5.75752 25.0749C5.35308 25.0713 5.06058 24.7558 5.06058 24.3219C5.06058 20.392 5.06058 16.4693 5.06058 12.543Z" fill="white"/>
<path d="M11.5823 31.1132C10.5423 31.1132 9.50587 31.1132 8.45865 31.1132C8.45865 29.055 8.45865 27.004 8.45865 24.9351C9.49504 24.9351 10.5314 24.9351 11.5823 24.9351C11.5823 26.9861 11.5823 29.0442 11.5823 31.1132Z" fill="white"/>
<path d="M23.9973 24.9279C25.0373 24.9279 26.07 24.9279 27.1136 24.9279C27.1136 26.9932 27.1136 29.0478 27.1136 31.1167C26.0736 31.1167 25.0409 31.1167 23.9973 31.1167C23.9973 29.0586 23.9973 27.004 23.9973 24.9279Z" fill="white"/>
</g>
<defs>
<clipPath id="clip0_224_2964">
<rect width="52" height="36" fill="white"/>
</clipPath>
</defs>
</svg>
