<svg width="36" height="36" viewBox="0 0 36 36" fill="none" xmlns="http://www.w3.org/2000/svg">
<g clip-path="url(#clip0_376_1509)">
<path fill-rule="evenodd" clip-rule="evenodd" d="M20.5714 2.57143C20.5714 1.15127 19.4202 0 18 0C16.5799 0 15.4286 1.15127 15.4286 2.57143V15.5331C15.4286 16.9533 16.5799 18.1046 18 18.1046C19.4202 18.1046 20.5714 16.9533 20.5714 15.5331V2.57143ZM10.0455 7.9092C11.1649 7.03527 11.3639 5.41934 10.49 4.29992C9.61604 3.18052 8.0001 2.98152 6.88068 3.85547C3.94442 6.14787 1.79699 9.2997 0.738046 12.8712C-0.320899 16.4427 -0.238536 20.2556 0.973641 23.7781C2.18581 27.3006 4.46734 30.3567 7.49986 32.5201C10.5324 34.6837 14.1646 35.8465 17.8898 35.8465C21.615 35.8465 25.2472 34.6837 28.2798 32.5201C31.3123 30.3567 33.5937 27.3006 34.8058 23.7781C36.018 20.2556 36.1005 16.4427 35.0416 12.8712C33.9827 9.2997 31.8351 6.14787 28.899 3.85547C27.7794 2.98152 26.1635 3.18052 25.2896 4.29992C24.4157 5.41934 24.6147 7.03527 25.7341 7.9092C27.8262 9.5426 29.3565 11.7884 30.1109 14.3331C30.8654 16.8779 30.8067 19.5947 29.943 22.1046C29.0793 24.6144 27.4536 26.792 25.2929 28.3335C23.1321 29.8751 20.5441 30.7036 17.8898 30.7036C15.2355 30.7036 12.6474 29.8751 10.4867 28.3335C8.32595 26.792 6.70032 24.6144 5.8366 22.1046C4.97289 19.5947 4.91421 16.8779 5.66874 14.3331C6.42325 11.7884 7.95335 9.5426 10.0455 7.9092Z" fill="white"/>
</g>
<defs>
<clipPath id="clip0_376_1509">
<rect width="36" height="36" fill="white"/>
</clipPath>
</defs>
</svg>
