<svg width="35" height="24" viewBox="0 0 35 24" fill="none" xmlns="http://www.w3.org/2000/svg">
<g clip-path="url(#clip0_224_3778)">
<path d="M35.0788 12.2304C34.5359 13.296 33.5567 13.7664 32.4611 13.9872C30.9777 14.2848 29.6592 13.9104 28.5345 12.9024C27.439 11.9232 26.3531 11.9232 25.2478 12.912C23.5027 14.4768 20.9722 14.496 19.2077 12.9216C18.5096 12.2976 17.7534 11.9712 16.8323 12.3072C16.5124 12.4224 16.2118 12.6336 15.95 12.864C14.0304 14.5152 11.655 14.5152 9.75474 12.8448C8.69796 11.9232 7.61208 11.9424 6.52621 12.912C4.77136 14.4768 2.18272 14.4768 0.45696 12.8928C-0.0762815 12.4032 -0.153844 11.7312 0.282444 11.232C0.728428 10.7232 1.4071 10.6944 1.98882 11.1648C3.03591 12.0192 4.0733 11.9904 5.09131 11.0976C6.9625 9.456 9.38632 9.4464 11.2575 11.088C12.324 12.0192 13.4002 12.0192 14.4667 11.0784C16.3088 9.4464 18.7617 9.4464 20.6038 11.0784C21.6606 12.0192 22.7464 12.0192 23.8129 11.088C25.7035 9.4368 28.1176 9.4464 30.0082 11.1168C30.9293 11.9328 32.0442 12 32.9265 11.2992C33.8475 10.56 34.4874 10.6752 35.0788 11.6832C35.0788 11.8656 35.0788 12.048 35.0788 12.2304Z" fill="white"/>
<path d="M35.0898 7.368C34.5469 8.4336 33.5677 8.90401 32.4721 9.12481C30.9887 9.42241 29.6702 9.048 28.5455 8.04C27.4499 7.0608 26.3641 7.0608 25.2588 8.0496C23.5137 9.6144 20.9832 9.63361 19.2186 8.05921C18.5206 7.43521 17.7643 7.10881 16.8433 7.44481C16.5233 7.56001 16.2228 7.7712 15.961 8.0016C14.0414 9.6528 11.666 9.6528 9.76573 7.9824C8.70894 7.0608 7.62307 7.08 6.5372 8.0496C4.78235 9.6144 2.19371 9.6144 0.467946 8.0304C-0.0652951 7.5408 -0.142857 6.8688 0.293431 6.3696C0.739414 5.8608 1.41808 5.832 1.9998 6.3024C3.04689 7.1568 4.08429 7.12801 5.10229 6.23521C6.97349 4.59361 9.39731 4.584 11.2685 6.2256C12.335 7.1568 13.4112 7.1568 14.4776 6.216C16.3197 4.584 18.7727 4.584 20.6148 6.216C21.6715 7.1568 22.7574 7.1568 23.8239 6.2256C25.7145 4.5744 28.1286 4.584 30.0192 6.2544C30.9402 7.0704 32.0552 7.13761 32.9375 6.43681C33.8585 5.69761 34.4984 5.81281 35.0898 6.82081C35.0898 7.00321 35.0898 7.1856 35.0898 7.368Z" fill="white"/>
<path d="M35.0788 17.1168C34.4971 18.192 33.4888 18.672 32.3545 18.8736C30.8905 19.1424 29.6107 18.72 28.5054 17.7408C27.6329 16.9632 26.6924 16.8288 25.8198 17.3472C25.6162 17.472 25.432 17.6256 25.2575 17.7888C23.5027 19.344 20.9625 19.3632 19.2173 17.7888C18.5096 17.1552 17.7437 16.8384 16.8129 17.1936C16.4833 17.3184 16.173 17.5488 15.9112 17.7792C14.1273 19.3536 11.6162 19.3536 9.842 17.7792C8.71734 16.7808 7.67025 16.7808 6.5359 17.7792C4.75197 19.3536 2.16333 19.3344 0.44726 17.7408C-0.06659 17.2608 -0.134457 16.5984 0.292136 16.1088C0.728424 15.6 1.3974 15.5616 1.96942 16.0128C3.09407 16.9152 4.09269 16.8768 5.17856 15.9072C6.90432 14.3616 9.46388 14.352 11.1896 15.888C12.3531 16.9248 13.3905 16.9248 14.5442 15.8976C16.1827 14.448 18.5193 14.352 20.2644 15.6672C20.3905 15.7632 20.5068 15.8688 20.6329 15.9744C21.6993 16.9056 22.7852 16.896 23.842 15.9552C24.4237 15.4272 25.0927 15.0528 25.8683 14.8704C27.3905 14.5344 28.7381 14.8704 29.9113 15.8976C30.3475 16.2816 30.8032 16.5984 31.4043 16.6464C32.083 16.704 32.6453 16.4544 33.1495 16.0224C33.6342 15.6096 34.216 15.5904 34.6426 15.9648C34.8268 16.128 34.9431 16.368 35.0982 16.5792C35.0788 16.752 35.0788 16.9344 35.0788 17.1168Z" fill="white"/>
</g>
<defs>
<clipPath id="clip0_224_3778">
<rect width="35" height="24" fill="white"/>
</clipPath>
</defs>
</svg>
