<svg width="35" height="24" viewBox="0 0 35 24" fill="none" xmlns="http://www.w3.org/2000/svg">
<g clip-path="url(#clip0_224_3760)">
<path d="M19.1245 16.162C14.3558 16.162 9.5943 16.162 4.82312 16.162C4.82312 10.9628 4.82312 5.76601 4.82312 0.562027C9.58458 0.562027 14.3509 0.562027 19.1245 0.562027C19.1245 5.75645 19.1245 10.9509 19.1245 16.162ZM11.9617 5.21382C13.8405 5.21382 15.7193 5.21382 17.6006 5.21382C17.6856 5.21382 17.7707 5.21621 17.8558 5.21382C18.0867 5.20187 18.2738 4.99868 18.2714 4.76442C18.269 4.52776 18.0818 4.32936 17.8485 4.32697C17.3648 4.3198 16.8787 4.31262 16.395 4.31262C15.9551 4.31262 15.5151 4.32458 15.0752 4.32458C12.861 4.32697 10.6467 4.32458 8.43249 4.32458C7.67173 4.32458 6.90854 4.32458 6.14777 4.32458C6.09187 4.32458 6.03354 4.32936 5.98006 4.34609C5.77347 4.41302 5.65194 4.62099 5.6884 4.83852C5.72486 5.05844 5.89986 5.21382 6.12104 5.21382C6.77729 5.21621 7.43354 5.21382 8.08736 5.21382C9.37798 5.21382 10.6686 5.21382 11.9617 5.21382ZM16.5165 12.4066C16.5165 12.4043 16.5165 12.3995 16.5165 12.3971C16.9419 12.3971 17.3672 12.4019 17.7926 12.3923C17.8922 12.3899 18.004 12.3588 18.0867 12.3063C18.2471 12.2035 18.3078 11.9931 18.2519 11.8186C18.1936 11.6369 18.0381 11.5198 17.8315 11.5174C17.1266 11.515 16.4242 11.515 15.7193 11.515C14.0544 11.515 12.3894 11.515 10.7269 11.515C10.1776 11.515 9.62833 11.5031 9.07902 11.5055C8.14812 11.5055 7.21965 11.5126 6.28875 11.5174C6.23284 11.5174 6.17451 11.5174 6.11861 11.5174C5.92902 11.5198 5.79048 11.6059 5.71756 11.7756C5.64222 11.9477 5.67381 12.1102 5.8002 12.2537C5.90229 12.3708 6.03354 12.3971 6.1818 12.3971C8.53944 12.3971 10.8946 12.3971 13.2523 12.3971C13.8235 12.3971 14.3946 12.4043 14.9658 12.4066C15.4811 12.409 15.9988 12.4066 16.5165 12.4066ZM11.9617 6.7198C11.9617 6.71741 11.9617 6.71741 11.9617 6.7198C11.8644 6.71741 11.7672 6.71741 11.67 6.71741C9.89083 6.71741 8.11409 6.71741 6.33493 6.71741C6.2134 6.71741 6.08701 6.71023 5.9752 6.7437C5.75645 6.80824 5.64708 7.02577 5.6884 7.26003C5.72486 7.46561 5.90472 7.60665 6.13076 7.60665C7.17104 7.60665 8.21375 7.60665 9.25402 7.60665C12.0905 7.60665 14.9245 7.60665 17.761 7.60665C17.8242 7.60665 17.8922 7.60665 17.953 7.58752C18.1693 7.52537 18.2957 7.31741 18.2617 7.0951C18.2276 6.87039 18.0526 6.7198 17.8193 6.7198C15.8651 6.71741 13.9134 6.7198 11.9617 6.7198ZM11.9738 13.9126C11.2398 13.9126 10.5082 13.9126 9.77416 13.9126C8.55888 13.9126 7.34361 13.9126 6.12833 13.9126C5.86826 13.9126 5.67625 14.1015 5.67625 14.3453C5.67625 14.6011 5.8634 14.7875 6.1259 14.7947C6.18666 14.7971 6.24743 14.7947 6.30819 14.7947C8.49083 14.7947 10.6759 14.7947 12.8585 14.7947C14.504 14.7947 16.1471 14.7947 17.7926 14.7947C18.1037 14.7947 18.3078 14.5676 18.2617 14.276C18.2252 14.0465 18.0453 13.9126 17.7707 13.9126C15.8384 13.9126 13.9061 13.9126 11.9738 13.9126ZM11.9446 10.0019C13.0433 10.0019 14.1394 10.0019 15.2381 10.0019C16.0839 10.0019 16.9297 10.009 17.7756 10.009C17.9214 10.009 18.0575 9.97318 18.1547 9.85605C18.2811 9.70784 18.3054 9.53812 18.2228 9.36601C18.1328 9.17717 17.9603 9.1198 17.761 9.1198C16.7401 9.12219 15.7193 9.12219 14.6985 9.12219C11.8644 9.12219 9.02798 9.12219 6.19395 9.12219C6.14534 9.12219 6.09673 9.12458 6.04812 9.12936C5.81722 9.16043 5.65194 9.3684 5.67868 9.59788C5.70541 9.84888 5.88527 10.0019 6.15993 10.0019C8.08979 10.0019 10.0172 10.0019 11.9446 10.0019ZM11.9714 1.92697C10.5811 1.92697 9.19326 1.92697 7.80298 1.92697C7.24395 1.92697 6.68493 1.92458 6.1259 1.92697C5.92416 1.92697 5.7759 2.03454 5.70541 2.21382C5.63979 2.38832 5.6884 2.57956 5.82937 2.70386C5.94118 2.80187 6.07729 2.80665 6.21826 2.80665C7.69118 2.80665 9.16409 2.80665 10.637 2.80665C12.9655 2.80665 15.294 2.80665 17.6249 2.80665C17.6978 2.80665 17.7707 2.80665 17.8436 2.80426C18.0842 2.79231 18.2641 2.61541 18.2738 2.38593C18.2835 2.16362 18.1061 1.96043 17.8776 1.93175C17.8169 1.92458 17.7561 1.92936 17.6953 1.92936C15.7849 1.92697 13.8794 1.92697 11.9714 1.92697Z" fill="white"/>
<path d="M22.226 23.9979C15.3816 23.9979 8.55171 23.9979 1.70483 23.9979C1.70483 23.9525 1.70483 23.9094 1.70483 23.8688C1.70483 23.2282 1.70483 22.5851 1.70483 21.9445C1.70483 21.4999 2.00136 21.1963 2.45345 21.1963C3.68574 21.1939 4.9156 21.1987 6.14789 21.1987C7.34372 21.1987 8.53713 21.1963 9.73296 21.1963C11.5948 21.1963 13.459 21.1963 15.3208 21.1963C17.0587 21.1963 18.7965 21.1963 20.5343 21.1963C20.8455 21.1963 21.159 21.2035 21.4701 21.1963C21.9514 21.1843 22.2455 21.5596 22.2333 21.966C22.2139 22.5995 22.2284 23.2329 22.2284 23.8664C22.226 23.9047 22.226 23.9429 22.226 23.9979Z" fill="white"/>
<path d="M20.9936 0.554856C21.5138 0.550075 22.0242 0.518999 22.5103 0.724577C23.378 1.09031 23.9468 1.93175 23.9419 2.85924C23.9395 3.28952 23.9419 3.7174 23.9419 4.14768C23.9419 6.20346 23.9419 8.25924 23.9419 10.315C23.9419 11.4935 23.9419 12.672 23.9419 13.8505C23.9419 14.8903 23.2784 15.7772 22.2648 16.0736C22.0874 16.1262 21.9002 16.1477 21.7155 16.1596C21.4773 16.174 21.2391 16.162 20.9912 16.162C20.9936 10.9604 20.9936 5.76362 20.9936 0.554856Z" fill="white"/>
<path d="M2.9395 0.552467C2.9395 5.75884 2.9395 10.9533 2.9395 16.1453C2.93221 16.1525 2.92735 16.162 2.92005 16.162C2.41936 16.1692 1.91866 16.1979 1.43741 15.9995C0.581859 15.6457 0.00338668 14.8067 0.00338668 13.8935C0.00338668 11.2616 0.0058172 8.62737 0.0058172 5.9955C0.0058172 4.9437 -0.00876617 3.89191 0.00824772 2.84012C0.0228311 1.88155 0.494359 1.18593 1.3645 0.760436C1.66103 0.614619 1.98429 0.554858 2.31728 0.557249C2.51901 0.552468 2.72318 0.552467 2.9395 0.552467Z" fill="white"/>
<path d="M24.3989 4.78354C24.9555 4.80744 25.5048 4.78115 26.0347 4.8672C26.9121 5.01063 27.6048 5.79947 27.6899 6.67437C27.7118 6.8919 27.7093 7.11183 27.7093 7.32936C27.7118 8.17796 27.7093 9.02657 27.7093 9.87517C27.7093 10.9055 27.0069 11.7588 25.9812 11.9668C25.8159 12.0003 25.6434 12.0027 25.4732 12.0051C25.1184 12.0098 24.7611 12.0074 24.3965 12.0074C24.3989 9.60505 24.3989 7.21222 24.3989 4.78354Z" fill="white"/>
<path d="M34.9961 10.1405C32.7162 10.1405 30.4437 10.1405 28.1614 10.1405C28.1614 9.07199 28.1614 8.01063 28.1614 6.94211C30.4388 6.94211 32.7138 6.94211 34.9961 6.94211C34.9961 8.00585 34.9961 9.0696 34.9961 10.1405Z" fill="white"/>
<path d="M19.5864 8.35724C19.5864 5.92378 19.5864 3.49031 19.5864 1.05684C19.5864 0.870389 19.584 0.681545 19.5864 0.495091C19.5913 0.208238 19.7954 0.000269729 20.0677 0.00266017C20.3399 0.00505061 20.5392 0.215409 20.5392 0.504652C20.5392 5.04888 20.5392 9.59549 20.5392 14.1397C20.5392 14.8401 20.5392 15.5429 20.5368 16.2433C20.5368 16.4393 20.4444 16.5875 20.2621 16.6712C20.0822 16.7525 19.9145 16.7286 19.7614 16.609C19.6326 16.5086 19.584 16.3724 19.584 16.2098C19.5864 15.1031 19.584 13.9963 19.584 12.8871C19.5864 11.3764 19.5864 9.868 19.5864 8.35724Z" fill="white"/>
<path d="M3.40613 8.36203C3.40613 5.7445 3.40613 3.12936 3.40613 0.511826C3.40613 0.294297 3.49363 0.134138 3.69293 0.0409105C3.86307 -0.037974 4.05995 0.000272584 4.19849 0.129356C4.30786 0.232145 4.35161 0.361229 4.35161 0.507046C4.35161 0.925373 4.35161 1.3437 4.35161 1.76203C4.35161 4.05924 4.34918 6.35884 4.34918 8.65605C4.34918 11.0489 4.34918 13.4441 4.34918 15.8369C4.34918 15.9684 4.35404 16.0999 4.35161 16.2313C4.34189 16.5158 4.14016 16.719 3.87523 16.7166C3.603 16.7142 3.40613 16.5039 3.40613 16.2146C3.40613 13.5947 3.40613 10.9796 3.40613 8.36203Z" fill="white"/>
<path d="M7.79579 20.7421C7.09579 20.7421 6.39822 20.7421 5.69336 20.7421C5.69336 19.37 5.69336 18.0027 5.69336 16.6234C6.39093 16.6234 7.0885 16.6234 7.79579 16.6234C7.79579 17.9907 7.79579 19.3628 7.79579 20.7421Z" fill="white"/>
<path d="M16.152 16.6186C16.852 16.6186 17.5471 16.6186 18.2495 16.6186C18.2495 17.9955 18.2495 19.3652 18.2495 20.7445C17.5495 20.7445 16.8544 20.7445 16.152 20.7445C16.152 19.3724 16.152 18.0027 16.152 16.6186Z" fill="white"/>
</g>
<defs>
<clipPath id="clip0_224_3760">
<rect width="35" height="24" fill="white"/>
</clipPath>
</defs>
</svg>
