<svg width="28" height="28" viewBox="0 0 28 28" fill="none" xmlns="http://www.w3.org/2000/svg">
<path d="M22.5633 16.905L21.3967 14.9683C21.1517 14.5366 20.93 13.72 20.93 13.2416V10.29C20.93 7.54831 19.32 5.17998 16.9983 4.07165C16.3917 2.99831 15.2717 2.33331 13.9883 2.33331C12.7167 2.33331 11.5733 3.02165 10.9667 4.10665C8.69168 5.23831 7.11668 7.58331 7.11668 10.29V13.2416C7.11668 13.72 6.89501 14.5366 6.65001 14.9566L5.47168 16.905C5.00501 17.6866 4.90001 18.55 5.19168 19.3433C5.47168 20.125 6.13668 20.7316 7.00001 21.0233C9.26335 21.7933 11.6433 22.1666 14.0233 22.1666C16.4033 22.1666 18.7833 21.7933 21.0467 21.035C21.8634 20.7666 22.4934 20.1483 22.7967 19.3433C23.1 18.5383 23.0183 17.6516 22.5633 16.905Z" fill="white"/>
<path d="M17.3017 23.345C16.8117 24.6983 15.5167 25.6666 14 25.6666C13.0784 25.6666 12.1684 25.2933 11.5267 24.6283C11.1534 24.2783 10.8734 23.8116 10.71 23.3333C10.8617 23.3566 11.0134 23.3683 11.1767 23.3916C11.445 23.4266 11.725 23.4616 12.005 23.485C12.67 23.5433 13.3467 23.5783 14.0234 23.5783C14.6884 23.5783 15.3534 23.5433 16.0067 23.485C16.2517 23.4616 16.4967 23.45 16.73 23.415C16.9167 23.3916 17.1034 23.3683 17.3017 23.345Z" fill="white"/>
</svg>
