<svg width="52" height="36" viewBox="0 0 52 36" fill="none" xmlns="http://www.w3.org/2000/svg">
<g clip-path="url(#clip0_224_2982)">
<path d="M52.1171 18.3456C51.3105 19.944 49.8556 20.6496 48.2279 20.9808C46.0241 21.4272 44.0651 20.8656 42.3941 19.3536C40.7664 17.8848 39.1531 17.8848 37.511 19.368C34.9182 21.7152 31.1587 21.744 28.5371 19.3824C27.5 18.4464 26.3764 17.9568 25.008 18.4608C24.5327 18.6336 24.0861 18.9504 23.6972 19.296C20.8451 21.7728 17.316 21.7728 14.4928 19.2672C12.9227 17.8848 11.3094 17.9136 9.69609 19.368C7.08888 21.7152 3.2429 21.7152 0.678911 19.3392C-0.113332 18.6048 -0.228568 17.5968 0.419632 16.848C1.08224 16.0848 2.09055 16.0416 2.95481 16.7472C4.51049 18.0288 6.05176 17.9856 7.56423 16.6464C10.3443 14.184 13.9454 14.1696 16.7254 16.632C18.3099 18.0288 19.9088 18.0288 21.4933 16.6176C24.2302 14.1696 27.8745 14.1696 30.6113 16.6176C32.1814 18.0288 33.7947 18.0288 35.3792 16.632C38.1881 14.1552 41.7748 14.1696 44.5836 16.6752C45.952 17.8992 47.6086 18 48.9194 16.9488C50.2878 15.84 51.2385 16.0128 52.1171 17.5248C52.1171 17.7984 52.1171 18.072 52.1171 18.3456Z" fill="white"/>
<path d="M52.1334 11.052C51.3268 12.6504 49.8719 13.356 48.2442 13.6872C46.0404 14.1336 44.0814 13.572 42.4104 12.06C40.7827 10.5912 39.1694 10.5912 37.5273 12.0744C34.9345 14.4216 31.175 14.4504 28.5534 12.0888C27.5163 11.1528 26.3927 10.6632 25.0243 11.1672C24.5489 11.34 24.1024 11.6568 23.7135 12.0024C20.8614 14.4792 17.3323 14.4792 14.5091 11.9736C12.939 10.5912 11.3257 10.62 9.71238 12.0744C7.10518 14.4216 3.2592 14.4216 0.695208 12.0456C-0.0970361 11.3112 -0.212272 10.3032 0.435928 9.55441C1.09853 8.79121 2.10684 8.74801 2.97111 9.45361C4.52679 10.7352 6.06806 10.692 7.58053 9.35281C10.3606 6.89041 13.9617 6.87601 16.7417 9.33841C18.3262 10.7352 19.9251 10.7352 21.5096 9.32401C24.2465 6.87601 27.8908 6.87601 30.6276 9.32401C32.1977 10.7352 33.811 10.7352 35.3955 9.33841C38.2043 6.86161 41.7911 6.87601 44.5999 9.38161C45.9683 10.6056 47.6248 10.7064 48.9356 9.65521C50.3041 8.54641 51.2548 8.71921 52.1334 10.2312C52.1334 10.5048 52.1334 10.7784 52.1334 11.052Z" fill="white"/>
<path d="M52.1172 25.6752C51.2529 27.288 49.7548 28.008 48.0695 28.3104C45.8944 28.7136 43.9931 28.08 42.351 26.6112C41.0546 25.4448 39.6573 25.2432 38.3609 26.0208C38.0584 26.208 37.7848 26.4384 37.5255 26.6832C34.9183 29.016 31.1443 29.0448 28.5515 26.6832C27.5 25.7328 26.362 25.2576 24.9792 25.7904C24.4895 25.9776 24.0285 26.3232 23.6396 26.6688C20.9892 29.0304 17.2584 29.0304 14.6224 26.6688C12.9515 25.1712 11.3958 25.1712 9.71051 26.6688C7.06009 29.0304 3.21411 29.0016 0.664521 26.6112C-0.0989137 25.8912 -0.199745 24.8976 0.43405 24.1632C1.08225 23.4 2.07616 23.3424 2.92602 24.0192C4.59693 25.3728 6.08059 25.3152 7.69388 23.8608C10.2579 21.5424 14.0606 21.528 16.6246 23.832C18.3532 25.3872 19.8944 25.3872 21.6086 23.8464C24.0429 21.672 27.5144 21.528 30.1072 23.5008C30.2944 23.6448 30.4673 23.8032 30.6546 23.9616C32.239 25.3584 33.8523 25.344 35.4224 23.9328C36.2867 23.1408 37.2806 22.5792 38.4329 22.3056C40.6944 21.8016 42.6967 22.3056 44.4396 23.8464C45.0878 24.4224 45.7648 24.8976 46.6579 24.9696C47.6662 25.056 48.5016 24.6816 49.2507 24.0336C49.9709 23.4144 50.8352 23.3856 51.469 23.9472C51.7426 24.192 51.9155 24.552 52.146 24.8688C52.1172 25.128 52.1172 25.4016 52.1172 25.6752Z" fill="white"/>
</g>
<defs>
<clipPath id="clip0_224_2982">
<rect width="52" height="36" fill="white"/>
</clipPath>
</defs>
</svg>
