<svg width="35" height="24" viewBox="0 0 35 24" fill="none" xmlns="http://www.w3.org/2000/svg">
<g clip-path="url(#clip0_224_3800)">
<path d="M13.5096 24.1564C13.472 24.1564 13.4344 24.1564 13.3969 24.1564C11.763 24.1564 10.1479 24.1564 8.51409 24.1564C8.11971 24.1564 7.83801 23.8774 7.83801 23.4867C7.83801 21.6638 7.83801 19.8409 7.83801 18.018C7.83801 17.6088 8.11971 17.3298 8.53287 17.3298C9.05871 17.3298 9.58455 17.3298 10.1104 17.3298C10.5235 17.3298 10.7865 17.0694 10.7865 16.6602C10.7865 12.5121 10.7865 8.38267 10.7865 4.23463C10.7865 3.80681 10.9555 3.49059 11.256 3.21157C11.6503 2.85815 12.1198 2.65354 12.6081 2.48613C13.3405 2.24432 14.0917 2.15131 14.8617 2.13271C15.6692 2.11411 16.458 2.18851 17.228 2.41173C17.7726 2.56054 18.2984 2.76515 18.7492 3.13717C18.9933 3.34178 19.1999 3.58359 19.275 3.89981C19.3313 4.17883 19.3313 4.43924 19.1248 4.66246C18.9933 4.81127 18.8243 4.86707 18.6365 4.88567C18.4111 4.88567 18.167 4.88567 17.9416 4.88567C17.5285 4.86707 17.2468 5.20189 17.2655 5.55531C17.2843 5.98313 17.2655 6.42956 17.2655 6.85738C17.2655 7.22941 17.5285 7.48982 17.9041 7.48982C18.1482 7.48982 18.3736 7.48982 18.6177 7.48982C19.0121 7.48982 19.2938 7.76884 19.2938 8.15946C19.2938 11.0054 19.2938 13.8328 19.2938 16.6788C19.2938 17.088 19.5567 17.3484 19.9699 17.3484C20.4957 17.3484 21.0215 17.3484 21.5286 17.3484C21.9605 17.3484 22.2422 17.6274 22.2422 18.0366C22.2422 19.8409 22.2422 21.6452 22.2422 23.4495C22.2422 23.8774 21.9605 24.1564 21.5286 24.1564C19.6318 24.1564 17.735 24.1564 15.8383 24.1564C15.7444 24.1564 15.7256 24.1378 15.7256 24.0448C15.7068 23.0775 15.7256 22.0917 15.7819 21.1244C15.8383 20.1572 15.9509 19.1899 16.1012 18.2226C16.2139 17.5158 16.3641 16.809 16.5519 16.1021C16.5519 16.0835 16.5519 16.0649 16.5707 16.0463L16.5519 16.0277C16.4017 16.1207 16.2326 16.1951 16.0824 16.2881C15.5753 16.6043 15.2185 17.0508 14.8993 17.5344C14.3922 18.3342 14.0542 19.2271 13.8476 20.1572C13.5659 21.329 13.472 22.5381 13.5096 23.7472C13.5096 23.8774 13.5283 23.989 13.5283 24.1192C13.5096 24.1192 13.5096 24.1378 13.5096 24.1564Z" fill="white"/>
<path d="M31.2378 1.18404C31.219 1.63047 31.0312 1.94669 30.6744 2.1513C29.9607 2.54192 29.2283 2.93254 28.4959 3.32317C28.2142 3.47197 27.9325 3.62078 27.6508 3.78819C27.2564 4.01141 27.0311 4.45783 27.125 4.88566C27.2189 5.35068 27.5945 5.6669 28.0452 5.72271C28.6837 5.79711 29.3222 5.89011 29.9419 5.96452C30.4302 6.02032 30.8997 6.07612 31.388 6.15053C31.8575 6.22493 32.2143 6.57835 32.2894 7.04338C32.3082 7.21079 32.3646 7.3968 32.3458 7.56421C32.3082 8.04784 31.8763 8.38266 31.388 8.30826C30.6368 8.21525 29.8856 8.12224 29.1344 8.02924C28.3644 7.93623 27.5757 7.82463 26.8057 7.73162C26.0169 7.63862 25.247 7.52701 24.4582 7.434C23.538 7.3224 22.6178 7.19219 21.6976 7.08058C21.4534 7.04338 21.2281 7.02478 20.9839 6.98758C20.5332 6.91317 20.1764 6.55975 20.1013 6.13193C20.0261 5.6669 20.2327 5.22048 20.6459 4.99726C21.0778 4.75545 21.5098 4.53224 21.9417 4.29042C23.7821 3.28596 25.6413 2.28151 27.4818 1.29565C28.1954 0.905026 28.8903 0.533005 29.6039 0.142382C30.28 -0.229639 31.0875 0.160983 31.219 0.923627C31.219 0.998031 31.2378 1.10964 31.2378 1.18404Z" fill="white"/>
<path d="M22.9182 24.1564C22.937 24.082 22.9558 24.0076 22.9933 23.9332C23.3689 22.7799 23.8009 21.6452 24.3643 20.5478C24.815 19.6921 25.3033 18.8737 25.9606 18.1482C26.2986 17.7948 26.6554 17.46 27.1061 17.2368C27.2752 17.1624 27.463 17.1066 27.632 17.0322C27.6508 17.0322 27.6883 17.0322 27.7259 17.0135C27.7071 17.0508 27.7071 17.088 27.6883 17.1066C26.9935 18.7434 26.4301 20.4361 25.923 22.1288C25.7352 22.7799 25.5662 23.4309 25.3784 24.0634C25.3596 24.1192 25.3408 24.1378 25.2657 24.1378C24.5145 24.1378 23.7633 24.1378 23.0121 24.1378C22.9933 24.1564 22.9558 24.1564 22.9182 24.1564Z" fill="white"/>
<path d="M7.49992 24.1564C7.46236 24.1564 7.4248 24.1564 7.38724 24.1564C6.63605 24.1564 5.88485 24.1564 5.13365 24.1564C5.05853 24.1564 5.02097 24.1378 5.00219 24.0634C4.60781 22.5939 4.11954 21.1616 3.46224 19.7851C3.23688 19.3201 2.99274 18.8737 2.7486 18.4086C2.72982 18.3714 2.71104 18.3528 2.69226 18.297C2.8425 18.297 2.99274 18.2784 3.1242 18.297C3.6876 18.3528 4.1571 18.5946 4.60781 18.9295C5.22755 19.4131 5.71583 20.0083 6.11021 20.678C6.72995 21.701 7.14311 22.8171 7.4248 23.9704C7.46236 24.0262 7.48114 24.082 7.49992 24.1564Z" fill="white"/>
</g>
<defs>
<clipPath id="clip0_224_3800">
<rect width="35" height="24" fill="white"/>
</clipPath>
</defs>
</svg>
